<svg data-v-423bf9ae="" xmlns="http://www.w3.org/2000/svg" viewBox="0 0 253 90" class="iconLeftSlogan"><!----><!----><!----><g data-v-423bf9ae="" id="8b8b021c-ce47-4db0-b11a-efef24cf9027" fill="white" transform="matrix(5.813777446746826,0,0,5.813777446746826,103.66388702392578,-40.35579299926758)"><path d="M2.50 15.96L4.03 15.96L4.03 15.96Q4.53 15.96 4.98 15.96L4.98 15.96L4.98 15.96Q5.43 15.96 5.82 15.94L5.82 15.94L5.82 15.94Q6.20 15.93 6.50 15.91L6.50 15.91L6.50 15.91Q6.80 15.89 7.01 15.86L7.01 15.86L7.01 17.09L1.09 17.09L1.09 17.09Q1.17 16.68 1.18 15.90L1.18 15.90L1.18 15.90Q1.20 15.13 1.20 14.12L1.20 14.12L1.20 10.08L1.20 10.08Q1.20 9.07 1.18 8.30L1.18 8.30L1.18 8.30Q1.17 7.52 1.09 7.11L1.09 7.11L2.50 7.11L2.50 15.96ZM15.52 14.80L15.79 16.13L15.79 16.13Q15.49 16.41 15.09 16.62L15.09 16.62L15.09 16.62Q14.68 16.83 14.24 16.97L14.24 16.97L14.24 16.97Q13.80 17.12 13.35 17.19L13.35 17.19L13.35 17.19Q12.90 17.26 12.51 17.26L12.51 17.26L12.51 17.26Q11.47 17.26 10.64 16.91L10.64 16.91L10.64 16.91Q9.82 16.56 9.24 15.90L9.24 15.90L9.24 15.90Q8.65 15.25 8.34 14.32L8.34 14.32L8.34 14.32Q8.03 13.39 8.03 12.24L8.03 12.24L8.03 12.24Q8.03 10.92 8.42 9.92L8.42 9.92L8.42 9.92Q8.80 8.93 9.44 8.26L9.44 8.26L9.44 8.26Q10.08 7.60 10.91 7.27L10.91 7.27L10.91 7.27Q11.74 6.94 12.65 6.94L12.65 6.94L12.65 6.94Q13.02 6.94 13.40 6.99L13.40 6.99L13.40 6.99Q13.78 7.03 14.17 7.14L14.17 7.14L14.17 7.14Q14.55 7.25 14.94 7.44L14.94 7.44L14.94 7.44Q15.32 7.62 15.69 7.90L15.69 7.90L15.28 9.13L15.28 9.13Q14.96 8.84 14.62 8.64L14.62 8.64L14.62 8.64Q14.29 8.44 13.95 8.32L13.95 8.32L13.95 8.32Q13.62 8.20 13.29 8.15L13.29 8.15L13.29 8.15Q12.95 8.10 12.65 8.10L12.65 8.10L12.65 8.10Q11.93 8.10 11.33 8.35L11.33 8.35L11.33 8.35Q10.73 8.60 10.29 9.10L10.29 9.10L10.29 9.10Q9.86 9.60 9.61 10.34L9.61 10.34L9.61 10.34Q9.37 11.08 9.37 12.07L9.37 12.07L9.37 12.07Q9.37 12.99 9.61 13.73L9.61 13.73L9.61 13.73Q9.85 14.46 10.28 14.98L10.28 14.98L10.28 14.98Q10.71 15.50 11.29 15.78L11.29 15.78L11.29 15.78Q11.88 16.06 12.58 16.06L12.58 16.06L12.58 16.06Q12.97 16.06 13.37 15.98L13.37 15.98L13.37 15.98Q13.77 15.89 14.15 15.72L14.15 15.72L14.15 15.72Q14.53 15.55 14.88 15.32L14.88 15.32L14.88 15.32Q15.23 15.09 15.52 14.80L15.52 14.80ZM24.13 7.11L25.60 7.11L25.60 7.11Q25.50 7.32 25.41 7.55L25.41 7.55L25.41 7.55Q25.31 7.78 25.20 8.07L25.20 8.07L25.20 8.07Q25.09 8.36 24.95 8.73L24.95 8.73L24.95 8.73Q24.81 9.11 24.64 9.60L24.64 9.60L22.01 17.09L20.47 17.09L17.81 9.60L17.81 9.60Q17.63 9.11 17.50 8.74L17.50 8.74L17.50 8.74Q17.36 8.37 17.25 8.07L17.25 8.07L17.25 8.07Q17.14 7.78 17.06 7.55L17.06 7.55L17.06 7.55Q16.97 7.32 16.88 7.11L16.88 7.11L18.35 7.11L21.24 15.76L24.13 7.11Z"></path></g><!----><g data-v-423bf9ae="" id="80ddb3a7-3652-46d6-b329-e9a8a9e32a67" transform="matrix(1,0,0,1,-5,-5)" stroke="none" fill="white"><path d="M92.5 40H85V22.5a2.5 2.5 0 0 0-.732-1.768l-15-15A2.504 2.504 0 0 0 67.5 5h-50A2.5 2.5 0 0 0 15 7.5V40H7.5A2.5 2.5 0 0 0 5 42.5v35A2.5 2.5 0 0 0 7.5 80H15v12.5a2.5 2.5 0 0 0 2.5 2.5h65a2.5 2.5 0 0 0 2.5-2.5V80h7.5a2.5 2.5 0 0 0 2.5-2.5v-35a2.5 2.5 0 0 0-2.5-2.5zM70 13.536L76.465 20H70v-6.464zM20 10h45v15h15v15H20V10zm60 80H20V80h60v10zm10-15H10V45h80v30z"></path><path d="M30 70h5V55h5v-5H25v5h5zM45 70h12.5v-5h-10v-2.5H55v-5h-7.5V55h10v-5H45a2.5 2.5 0 0 0-2.5 2.5v15A2.5 2.5 0 0 0 45 70zM65 67.5c0-1.9.945-3.624 2.5-4.652A5.552 5.552 0 0 1 70 67.5V70h5v-2.5c0-2.884-1.161-5.548-3.133-7.5A10.515 10.515 0 0 0 75 52.5V50h-5v2.5a5.55 5.55 0 0 1-2.5 4.652A5.552 5.552 0 0 1 65 52.5V50h-5v2.5c0 2.884 1.161 5.548 3.133 7.5A10.515 10.515 0 0 0 60 67.5V70h5v-2.5z"></path></g><!----><g data-v-423bf9ae="" id="d0445731-58cf-4e6f-91b0-843840609e0b" fill="white" transform="matrix(0.3977263867855072,0,0,0.3977263867855072,109.55101013183594,59.33194351196289)"><path d="M1.13 2.21L1.13 11.48L7.24 11.48L7.24 10.47L2.18 10.47L2.18 2.21ZM18.17 4.37C16.13 4.37 14.78 5.98 14.78 7.98C14.78 9.98 16.13 11.59 18.17 11.59C19.33 11.59 20.16 11.12 20.68 10.36L20.68 11.48L21.73 11.48L21.73 4.48L20.68 4.48L20.68 5.61C20.16 4.86 19.33 4.37 18.17 4.37ZM18.31 10.64C16.76 10.64 15.83 9.42 15.83 7.98C15.83 6.54 16.76 5.32 18.31 5.32C19.87 5.32 20.73 6.54 20.73 7.98C20.73 9.42 19.87 10.64 18.31 10.64ZM32.35 11.48L32.35 5.40L33.96 5.40L33.96 4.48L32.35 4.48L32.35 1.97L31.30 1.97L31.30 4.48L29.88 4.48L29.88 5.40L31.30 5.40L31.30 11.48ZM45.09 10.64C43.68 10.64 42.77 9.65 42.62 8.40L48.48 8.40L48.48 7.98C48.48 5.98 47.15 4.37 45.01 4.37C42.87 4.37 41.54 5.98 41.54 7.98C41.54 9.98 42.94 11.59 45.08 11.59C46.75 11.59 47.78 10.72 48.27 9.46L47.12 9.46C46.75 10.16 46.07 10.64 45.09 10.64ZM45.01 5.32C46.35 5.32 47.19 6.23 47.39 7.42L42.63 7.42C42.83 6.23 43.67 5.32 45.01 5.32ZM62.13 4.48L60.79 4.48L59.00 7.13L57.19 4.48L55.85 4.48L58.38 7.87L55.68 11.48L57.01 11.48L59.00 8.62L60.97 11.48L62.31 11.48L59.60 7.87ZM84.46 10.57C82.21 10.57 80.95 8.93 80.95 6.85C80.95 4.76 82.21 3.12 84.46 3.12C85.99 3.12 87.00 3.85 87.47 4.98L88.58 4.98C87.99 3.29 86.48 2.10 84.38 2.10C81.59 2.10 79.90 4.21 79.90 6.85C79.90 9.48 81.59 11.59 84.38 11.59C86.48 11.59 87.99 10.40 88.58 8.71L87.47 8.71C87.00 9.84 85.99 10.57 84.46 10.57ZM103.03 11.48L103.03 4.48L101.98 4.48L101.98 8.51C101.98 9.77 101.02 10.64 99.86 10.64C98.71 10.64 97.90 9.80 97.90 8.53L97.90 4.48L96.85 4.48L96.85 8.55C96.85 10.54 98.21 11.59 99.65 11.59C100.79 11.59 101.47 11.06 101.98 10.39L101.98 11.48ZM115.47 4.37C113.74 4.37 113.04 5.73 112.90 6.20L112.90 4.48L111.85 4.48L111.85 11.48L112.90 11.48L112.90 8.40C112.90 6.86 113.85 5.42 115.42 5.42L115.54 5.42L115.54 4.37ZM127.30 4.37C125.57 4.37 124.87 5.73 124.73 6.20L124.73 4.48L123.68 4.48L123.68 11.48L124.73 11.48L124.73 8.40C124.73 6.86 125.68 5.42 127.25 5.42L127.37 5.42L127.37 4.37ZM135.51 11.48L136.56 11.48L136.56 4.48L135.51 4.48ZM135.46 1.93L135.46 3.30L136.60 3.30L136.60 1.93ZM148.53 10.64C146.97 10.64 145.99 9.42 145.99 7.98C145.99 6.54 146.97 5.32 148.53 5.32C149.52 5.32 150.23 5.88 150.56 6.68L151.69 6.68C151.28 5.32 150.04 4.37 148.39 4.37C146.29 4.37 144.94 5.98 144.94 7.98C144.94 9.98 146.29 11.59 148.39 11.59C150.04 11.59 151.28 10.64 151.69 9.28L150.56 9.28C150.23 10.08 149.52 10.64 148.53 10.64ZM166.10 11.48L166.10 4.48L165.05 4.48L165.05 8.51C165.05 9.77 164.09 10.64 162.93 10.64C161.78 10.64 160.97 9.80 160.97 8.53L160.97 4.48L159.92 4.48L159.92 8.55C159.92 10.54 161.28 11.59 162.72 11.59C163.86 11.59 164.54 11.06 165.05 10.39L165.05 11.48ZM175.97 1.68L174.92 1.68L174.92 11.48L175.97 11.48ZM190.89 11.48L190.89 4.48L189.84 4.48L189.84 8.51C189.84 9.77 188.89 10.64 187.73 10.64C186.58 10.64 185.77 9.80 185.77 8.53L185.77 4.48L184.72 4.48L184.72 8.55C184.72 10.54 186.07 11.59 187.52 11.59C188.65 11.59 189.34 11.06 189.84 10.39L189.84 11.48ZM205.44 7.29C205.44 6.05 206.29 5.32 207.33 5.32C208.31 5.32 209.06 6.10 209.06 7.28L209.06 11.48L210.11 11.48L210.11 7.25C210.11 5.49 208.87 4.37 207.52 4.37C206.14 4.37 205.39 5.31 205.11 5.78C204.67 4.89 203.81 4.37 202.89 4.37C201.75 4.37 201.08 4.98 200.76 5.54L200.76 4.48L199.71 4.48L199.71 11.48L200.76 11.48L200.76 7.29C200.76 6.05 201.61 5.32 202.65 5.32C203.63 5.32 204.39 6.10 204.39 7.28L204.39 11.48L205.44 11.48ZM235.54 2.21L232.33 10.29L229.12 2.21L227.98 2.21L231.73 11.48L232.93 11.48L236.68 2.21ZM244.64 11.48L245.69 11.48L245.69 4.48L244.64 4.48ZM244.59 1.93L244.59 3.30L245.73 3.30L245.73 1.93ZM256.31 11.48L256.31 5.40L257.92 5.40L257.92 4.48L256.31 4.48L256.31 1.97L255.26 1.97L255.26 4.48L253.83 4.48L253.83 5.40L255.26 5.40L255.26 11.48ZM268.88 4.37C266.84 4.37 265.50 5.98 265.50 7.98C265.50 9.98 266.84 11.59 268.88 11.59C270.05 11.59 270.87 11.12 271.39 10.36L271.39 11.48L272.44 11.48L272.44 4.48L271.39 4.48L271.39 5.61C270.87 4.86 270.05 4.37 268.88 4.37ZM269.02 10.64C267.47 10.64 266.55 9.42 266.55 7.98C266.55 6.54 267.47 5.32 269.02 5.32C270.58 5.32 271.45 6.54 271.45 7.98C271.45 9.42 270.58 10.64 269.02 10.64ZM284.38 10.64C282.97 10.64 282.06 9.65 281.90 8.40L287.77 8.40L287.77 7.98C287.77 5.98 286.44 4.37 284.30 4.37C282.16 4.37 280.83 5.98 280.83 7.98C280.83 9.98 282.23 11.59 284.37 11.59C286.03 11.59 287.07 10.72 287.56 9.46L286.41 9.46C286.03 10.16 285.36 10.64 284.38 10.64ZM284.30 5.32C285.64 5.32 286.48 6.23 286.68 7.42L281.92 7.42C282.11 6.23 282.95 5.32 284.30 5.32Z"></path></g></svg>