<svg data-v-423bf9ae="" xmlns="http://www.w3.org/2000/svg" viewBox="0 0 142.50567751703255 60" class="font"><!----><!----><!----><g data-v-423bf9ae="" id="c88f4f29-6c56-4ca5-a2d1-c713e9eef4eb" fill="black" transform="matrix(5.813777446746826,0,0,5.813777446746826,-6.336109638214111,-40.35579299926758)"><path d="M2.50 15.96L4.03 15.96L4.03 15.96Q4.53 15.96 4.98 15.96L4.98 15.96L4.98 15.96Q5.43 15.96 5.82 15.94L5.82 15.94L5.82 15.94Q6.20 15.93 6.50 15.91L6.50 15.91L6.50 15.91Q6.80 15.89 7.01 15.86L7.01 15.86L7.01 17.09L1.09 17.09L1.09 17.09Q1.17 16.68 1.18 15.90L1.18 15.90L1.18 15.90Q1.20 15.13 1.20 14.12L1.20 14.12L1.20 10.08L1.20 10.08Q1.20 9.07 1.18 8.30L1.18 8.30L1.18 8.30Q1.17 7.52 1.09 7.11L1.09 7.11L2.50 7.11L2.50 15.96ZM15.52 14.80L15.79 16.13L15.79 16.13Q15.49 16.41 15.09 16.62L15.09 16.62L15.09 16.62Q14.68 16.83 14.24 16.97L14.24 16.97L14.24 16.97Q13.80 17.12 13.35 17.19L13.35 17.19L13.35 17.19Q12.90 17.26 12.51 17.26L12.51 17.26L12.51 17.26Q11.47 17.26 10.64 16.91L10.64 16.91L10.64 16.91Q9.82 16.56 9.24 15.90L9.24 15.90L9.24 15.90Q8.65 15.25 8.34 14.32L8.34 14.32L8.34 14.32Q8.03 13.39 8.03 12.24L8.03 12.24L8.03 12.24Q8.03 10.92 8.42 9.92L8.42 9.92L8.42 9.92Q8.80 8.93 9.44 8.26L9.44 8.26L9.44 8.26Q10.08 7.60 10.91 7.27L10.91 7.27L10.91 7.27Q11.74 6.94 12.65 6.94L12.65 6.94L12.65 6.94Q13.02 6.94 13.40 6.99L13.40 6.99L13.40 6.99Q13.78 7.03 14.17 7.14L14.17 7.14L14.17 7.14Q14.55 7.25 14.94 7.44L14.94 7.44L14.94 7.44Q15.32 7.62 15.69 7.90L15.69 7.90L15.28 9.13L15.28 9.13Q14.96 8.84 14.62 8.64L14.62 8.64L14.62 8.64Q14.29 8.44 13.95 8.32L13.95 8.32L13.95 8.32Q13.62 8.20 13.29 8.15L13.29 8.15L13.29 8.15Q12.95 8.10 12.65 8.10L12.65 8.10L12.65 8.10Q11.93 8.10 11.33 8.35L11.33 8.35L11.33 8.35Q10.73 8.60 10.29 9.10L10.29 9.10L10.29 9.10Q9.86 9.60 9.61 10.34L9.61 10.34L9.61 10.34Q9.37 11.08 9.37 12.07L9.37 12.07L9.37 12.07Q9.37 12.99 9.61 13.73L9.61 13.73L9.61 13.73Q9.85 14.46 10.28 14.98L10.28 14.98L10.28 14.98Q10.71 15.50 11.29 15.78L11.29 15.78L11.29 15.78Q11.88 16.06 12.58 16.06L12.58 16.06L12.58 16.06Q12.97 16.06 13.37 15.98L13.37 15.98L13.37 15.98Q13.77 15.89 14.15 15.72L14.15 15.72L14.15 15.72Q14.53 15.55 14.88 15.32L14.88 15.32L14.88 15.32Q15.23 15.09 15.52 14.80L15.52 14.80ZM24.13 7.11L25.60 7.11L25.60 7.11Q25.50 7.32 25.41 7.55L25.41 7.55L25.41 7.55Q25.31 7.78 25.20 8.07L25.20 8.07L25.20 8.07Q25.09 8.36 24.95 8.73L24.95 8.73L24.95 8.73Q24.81 9.11 24.64 9.60L24.64 9.60L22.01 17.09L20.47 17.09L17.81 9.60L17.81 9.60Q17.63 9.11 17.50 8.74L17.50 8.74L17.50 8.74Q17.36 8.37 17.25 8.07L17.25 8.07L17.25 8.07Q17.14 7.78 17.06 7.55L17.06 7.55L17.06 7.55Q16.97 7.32 16.88 7.11L16.88 7.11L18.35 7.11L21.24 15.76L24.13 7.11Z"></path></g><!----><!----></svg>